<svg version="1.0" xmlns="http://www.w3.org/2000/svg"
 width="785.000000pt" height="147.000000pt" viewBox="0 0 785.000000 147.000000"
 preserveAspectRatio="xMidYMid meet">
<metadata>
Created by potrace 1.16, written by Peter Selinger 2001-2019
</metadata>
<g transform="translate(0.000000,147.000000) scale(0.100000,-0.100000)"
fill="#122FAA" stroke="none">
<path d="M405 1397 c-119 -40 -216 -124 -268 -234 -29 -63 -32 -76 -32 -168 1
-81 5 -111 24 -158 45 -114 157 -219 268 -252 68 -20 196 -19 259 2 64 21 141
71 181 116 194 221 128 545 -137 671 -56 26 -78 31 -160 33 -59 2 -110 -2
-135 -10z m205 -237 c77 -40 124 -141 100 -217 -61 -190 -309 -190 -370 0 -24
77 20 175 97 216 50 26 123 27 173 1z"/>
<path d="M3485 1199 c-148 -16 -260 -71 -339 -168 -29 -36 -60 -78 -69 -92
-46 -71 -69 -243 -47 -351 50 -249 256 -408 530 -408 54 0 96 6 137 21 133 48
213 97 213 131 0 27 -73 156 -113 201 -40 42 -57 45 -122 17 -86 -37 -172 -22
-229 38 -30 32 -33 47 -28 147 2 45 6 53 43 83 54 46 131 54 213 23 73 -27
101 -27 121 2 105 149 125 208 84 247 -36 33 -130 90 -159 96 -14 2 -44 9 -68
14 -46 11 -62 11 -167 -1z"/>
<path d="M1416 1168 c-21 -16 -21 -26 -24 -470 -3 -544 -16 -497 136 -500 161
-3 206 6 218 44 3 11 6 96 6 189 0 225 9 226 114 9 26 -52 56 -108 69 -125 12
-16 25 -39 29 -50 3 -12 21 -29 38 -40 28 -16 57 -20 193 -23 147 -4 162 -3
184 15 l24 20 2 424 c1 233 -2 440 -6 459 -13 60 -34 69 -162 69 -142 0 -184
-10 -194 -47 -4 -15 -7 -101 -8 -191 0 -100 -4 -165 -10 -167 -5 -2 -43 62
-84 143 -87 170 -135 236 -184 252 -22 7 -90 11 -178 9 -115 -2 -147 -6 -163
-20z"/>
<path d="M2667 1181 c-85 -5 -101 -9 -116 -27 -16 -20 -17 -61 -19 -463 -1
-402 1 -442 16 -461 16 -20 30 -22 157 -27 l140 -5 25 27 25 27 2 356 c3 388
-2 528 -20 553 -15 20 -85 27 -210 20z"/>
<path d="M4048 1178 c-14 -5 -29 -17 -33 -26 -9 -23 -17 -759 -9 -844 10 -111
-20 -102 382 -106 l350 -3 28 25 c28 24 29 27 27 117 -2 83 -4 95 -26 117 -24
23 -28 24 -195 24 -156 0 -172 2 -188 19 -17 18 -16 20 2 34 19 14 50 17 222
19 105 1 122 11 122 71 0 18 3 59 6 92 6 53 4 62 -17 86 -24 27 -26 28 -164
30 -99 2 -148 8 -168 18 l-28 15 29 21 c25 19 42 21 176 21 132 0 151 2 175
20 25 19 26 21 23 118 -6 150 23 139 -365 140 -177 0 -334 -3 -349 -8z"/>
<path d="M5847 1152 l-28 -3 3 -107 3 -107 33 -3 c27 -3 35 1 39 17 5 21 5 21
30 1 29 -23 75 -26 91 -7 15 19 -4 57 -30 57 l-22 0 22 20 c27 25 30 91 6 111
-17 14 -101 26 -147 21z"/>
<path d="M6953 1153 c-12 -2 -36 -17 -53 -33 -24 -22 -30 -36 -30 -69 0 -80
42 -121 125 -121 40 0 52 5 81 34 38 38 45 86 19 135 -19 37 -88 64 -142 54z"/>
<path d="M5028 1068 c-1 -89 -1 -118 1 -131 0 -5 18 -7 39 -5 l37 3 3 84 c5
117 0 131 -43 131 l-35 0 -2 -82z"/>
<path d="M5140 1039 l0 -110 38 3 c36 3 37 4 42 48 l6 45 14 -30 c24 -52 41
-65 82 -65 23 0 38 5 39 13 4 62 3 190 -2 198 -3 6 -21 9 -40 7 -32 -3 -34 -5
-34 -41 0 -48 -10 -47 -35 3 -19 38 -23 40 -65 40 l-45 0 0 -111z"/>
<path d="M5392 1118 c2 -28 8 -34 31 -36 27 -3 27 -4 27 -78 l0 -75 38 3 37 3
3 73 3 72 29 0 c28 0 30 3 30 35 l0 35 -101 0 -100 0 3 -32z"/>
<path d="M5614 1137 c-3 -8 -3 -56 -2 -108 l3 -94 85 0 85 0 3 28 c3 26 2 27
-42 27 -55 0 -62 17 -8 22 32 3 37 6 37 28 0 22 -5 25 -37 28 -51 4 -49 22 2
22 38 0 40 2 40 30 l0 30 -80 0 c-58 0 -82 -4 -86 -13z"/>
<path d="M6055 1137 c-3 -7 -4 -56 -3 -108 l3 -94 38 -3 37 -3 0 46 c0 52 11
52 36 -1 17 -35 43 -48 85 -42 23 3 24 6 27 111 l3 107 -40 0 -40 0 -3 -47 -3
-48 -25 45 c-23 41 -29 45 -68 48 -29 2 -44 -1 -47 -11z"/>
<path d="M6366 1141 c-12 -19 -63 -201 -58 -206 11 -11 70 -4 82 10 7 8 20 15
30 15 10 0 20 -7 24 -15 7 -19 86 -21 86 -2 0 6 -13 55 -28 107 l-28 95 -51 3
c-28 2 -54 -1 -57 -7z"/>
<path d="M6540 1116 c0 -30 3 -35 28 -38 26 -3 27 -5 30 -75 l3 -73 33 0 c41
0 46 11 46 90 0 57 1 59 28 62 22 2 28 8 30 36 l3 32 -100 0 -101 0 0 -34z"/>
<path d="M6764 1137 c-3 -8 -3 -56 -2 -108 l3 -94 38 -3 37 -3 0 110 0 111
-35 0 c-20 0 -38 -6 -41 -13z"/>
<path d="M7140 1039 l0 -110 38 3 c36 3 37 4 42 48 l6 45 14 -30 c24 -52 41
-65 82 -65 23 0 38 5 39 13 4 62 3 190 -2 198 -3 6 -21 9 -40 7 -32 -3 -34 -5
-34 -41 0 -48 -10 -47 -35 3 -19 38 -23 40 -65 40 l-45 0 0 -111z"/>
<path d="M7445 1138 c-7 -23 -55 -197 -55 -202 0 -4 18 -6 40 -6 27 0 43 5 46
15 4 8 14 15 24 15 10 0 23 -7 30 -15 12 -14 71 -21 82 -10 3 3 -4 36 -14 73
-11 37 -24 84 -30 105 -10 37 -11 37 -65 37 -34 0 -55 -5 -58 -12z"/>
<path d="M7640 1041 l0 -111 80 0 80 0 0 34 c0 33 -2 35 -37 38 l-38 3 -5 70
-5 70 -37 3 -38 3 0 -110z"/>
<path d="M5070 542 c-31 -15 -35 -21 -35 -57 0 -36 4 -42 37 -60 47 -25 49
-39 4 -31 -24 5 -37 2 -47 -10 -32 -38 77 -73 134 -43 29 16 37 28 37 61 0 25
-12 39 -66 76 -18 11 -17 12 6 10 61 -6 71 45 13 61 -48 14 -42 14 -83 -7z"/>
<path d="M5303 549 c-86 -26 -99 -170 -18 -207 35 -16 97 -15 120 2 17 12 18
17 7 41 -10 22 -17 26 -41 20 -20 -4 -34 -1 -45 10 -19 20 -20 26 -3 50 11 14
21 17 46 12 27 -6 33 -3 43 19 9 20 9 28 -3 39 -19 20 -67 26 -106 14z"/>
<path d="M5780 553 c-88 -26 -120 -119 -62 -184 52 -58 171 -48 201 17 23 52
8 123 -31 147 -25 16 -84 27 -108 20z"/>
<path d="M6025 546 c-60 -27 -89 -90 -66 -148 36 -94 202 -87 231 10 29 94
-73 179 -165 138z"/>
<path d="M5450 439 l0 -110 38 3 c34 3 37 6 42 38 4 27 10 36 28 38 13 2 22
-2 23 -10 1 -7 2 -24 2 -38 2 -21 7 -25 40 -28 l37 -3 0 111 0 111 -37 -3
c-34 -3 -38 -6 -38 -31 -1 -16 -7 -32 -15 -37 -23 -14 -40 1 -40 36 0 33 -1
34 -40 34 l-40 0 0 -111z"/>
<path d="M6224 537 c-3 -8 -3 -56 -2 -108 l3 -94 80 0 80 0 3 32 c3 31 2 32
-40 35 l-43 3 -3 73 -3 72 -35 0 c-19 0 -37 -6 -40 -13z"/>
<path d="M100 458 c1 -41 20 -111 45 -160 111 -221 374 -302 589 -182 106 59
197 193 212 312 l7 52 -116 0 -116 0 -10 -36 c-16 -58 -52 -102 -105 -129 -63
-32 -99 -31 -164 1 -54 27 -92 76 -106 137 l-6 27 -115 0 c-113 0 -115 0 -115
-22z"/>
</g>
</svg>
